<?xml version="1.0" encoding="iso-8859-1"?>
<!-- Generator: Adobe Illustrator 19.0.0, SVG Export Plug-In . SVG Version: 6.00 Build 0)  -->
<svg version="1.1" id="Layer_1" xmlns="http://www.w3.org/2000/svg" xmlns:xlink="http://www.w3.org/1999/xlink" x="0px" y="0px"
	 viewBox="0 0 511.999 511.999" style="enable-background:new 0 0 511.999 511.999;" xml:space="preserve">
<g>
	<g>
		<path d="M437.018,74.98C388.668,26.629,324.381,0,256,0c-23.87,0-47.508,3.286-70.263,9.767c-4.423,1.26-6.989,5.868-5.728,10.292
			c1.26,4.423,5.862,6.991,10.292,5.728c21.27-6.058,43.374-9.13,65.699-9.13c63.931,0,124.035,24.896,169.24,70.102
			c45.206,45.206,70.102,105.31,70.102,169.24c0,88.293-48.368,169.132-126.228,210.969c-4.051,2.177-5.573,7.227-3.395,11.279
			c1.504,2.798,4.375,4.389,7.344,4.389c1.33,0,2.681-0.32,3.935-0.994c83.272-44.745,135.001-131.205,135.001-225.642
			C511.998,187.619,485.369,123.333,437.018,74.98z"/>
	</g>
</g>
<g>
	<g>
		<path d="M364.742,106.864c-0.235-2.472-1.561-4.711-3.616-6.105c-31.079-21.086-67.432-32.231-105.125-32.231
			c-103.372,0-187.471,84.099-187.471,187.471c0,37.691,11.145,74.043,32.23,105.123c1.395,2.056,3.633,3.38,6.106,3.616
			c0.263,0.024,0.526,0.038,0.788,0.038c2.198,0,4.32-0.871,5.889-2.44L362.34,113.54
			C364.095,111.784,364.976,109.336,364.742,106.864z M109.103,343.218c-15.677-26.332-23.916-56.276-23.916-87.218
			c0-94.187,76.626-170.813,170.813-170.813c30.943,0,60.887,8.238,87.218,23.916L109.103,343.218z"/>
	</g>
</g>
<g>
	<g>
		<path d="M348.183,486.09c-1.566-4.327-6.343-6.559-10.668-4.995c-26.097,9.454-53.523,14.247-81.514,14.247
			c-63.93,0-124.034-24.896-169.24-70.102c-45.207-45.206-70.103-105.31-70.103-169.241c0-46.779,13.494-92.088,39.026-131.031
			c24.888-37.966,59.812-67.974,100.995-86.784c4.184-1.911,6.027-6.852,4.116-11.036c-1.911-4.184-6.853-6.027-11.036-4.117
			c-44.043,20.117-81.392,52.208-108.005,92.804C14.439,157.5,0.001,205.968,0.001,255.999c0,68.38,26.629,132.667,74.982,181.019
			s112.639,74.98,181.019,74.98c29.931,0.001,59.265-5.127,87.187-15.241C347.513,495.191,349.748,490.416,348.183,486.09z"/>
	</g>
</g>
<g>
	<g>
		<path d="M411.243,150.877c-1.394-2.056-3.633-3.38-6.105-3.616c-2.469-0.232-4.922,0.646-6.678,2.402L149.663,398.459
			c-1.756,1.756-2.636,4.204-2.402,6.677c0.235,2.472,1.56,4.711,3.616,6.106c31.079,21.086,67.432,32.231,105.125,32.231
			c103.372,0,187.471-84.099,187.471-187.471C443.472,218.308,432.328,181.956,411.243,150.877z M256.001,426.814
			c-30.943,0-60.887-8.238-87.218-23.916l234.117-234.115c15.675,26.329,23.915,56.277,23.915,87.218
			C426.814,350.188,350.188,426.814,256.001,426.814z"/>
	</g>
</g>
<g>
</g>
<g>
</g>
<g>
</g>
<g>
</g>
<g>
</g>
<g>
</g>
<g>
</g>
<g>
</g>
<g>
</g>
<g>
</g>
<g>
</g>
<g>
</g>
<g>
</g>
<g>
</g>
<g>
</g>
</svg>
