<?xml version="1.0" encoding="iso-8859-1"?>
<!-- Generator: Adobe Illustrator 19.0.0, SVG Export Plug-In . SVG Version: 6.00 Build 0)  -->
<svg version="1.1" id="Capa_1" xmlns="http://www.w3.org/2000/svg" xmlns:xlink="http://www.w3.org/1999/xlink" x="0px" y="0px"
	 viewBox="0 0 511.999 511.999" style="enable-background:new 0 0 511.999 511.999;" xml:space="preserve">
<g>
	<g>
		<path d="M509.07,248.928l-80.359-80.359c-3.905-3.904-10.237-3.904-14.142,0l-80.36,80.359c-2.859,2.86-3.715,7.161-2.167,10.898
			c1.548,3.736,5.195,6.173,9.239,6.173h34.335c-5.1,61.582-56.85,110.137-119.725,110.137c-27.28,0-53.013-8.955-74.418-25.896
			c-3.979-3.152-9.688-2.818-13.277,0.77l-51.937,51.937c-1.965,1.966-3.024,4.661-2.922,7.438c0.102,2.777,1.354,5.387,3.458,7.203
			c38.547,33.281,87.945,51.609,139.096,51.609c56.948,0,110.486-22.177,150.752-62.445c37.901-37.899,59.775-87.561,62.215-140.752
			H502c4.045,0,7.691-2.436,9.238-6.174C512.786,256.089,511.93,251.788,509.07,248.928z M459.087,246.001c-5.523,0-10,4.478-10,10
			c0,51.605-20.096,100.121-56.586,136.609c-36.489,36.491-85.005,56.587-136.61,56.587c-42.732,0-84.107-14.11-117.666-39.932
			l38.014-38.014c23.46,16.311,50.815,24.886,79.652,24.886c77.272,0,140.137-62.866,140.137-140.137c0-5.522-4.477-10-10-10
			h-20.605l56.218-56.216l56.217,56.217H459.087z"/>
	</g>
</g>
<g>
	<g>
		<path d="M395.203,94.412c-38.547-33.281-87.945-51.609-139.096-51.609c-15.775,0-31.499,1.719-46.733,5.111
			c-5.391,1.201-8.788,6.543-7.588,11.934c1.2,5.391,6.542,8.788,11.934,7.588c13.81-3.074,28.072-4.633,42.388-4.633
			c42.732,0,84.107,14.11,117.666,39.932l-38.013,38.014c-23.461-16.311-50.816-24.886-79.653-24.886
			c-77.272,0-140.137,62.866-140.137,140.137c0,5.522,4.477,10,10,10h20.605l-56.218,56.217L34.142,266h18.771
			c5.523,0,10-4.478,10-10c0-51.605,20.096-100.121,56.586-136.609c7.734-7.735,16.132-14.841,24.96-21.119
			c4.501-3.201,5.555-9.444,2.354-13.945c-3.2-4.5-9.444-5.554-13.945-2.354c-9.734,6.922-18.99,14.754-27.511,23.275
			C67.456,143.147,45.581,192.809,43.142,246H10c-4.044,0-7.691,2.437-9.238,6.174c-1.548,3.737-0.692,8.038,2.168,10.898
			l80.359,80.359c1.952,1.952,4.512,2.929,7.071,2.929c2.559,0,5.118-0.977,7.071-2.929l80.36-80.359
			c2.859-2.86,3.715-7.161,2.167-10.898c-1.548-3.736-5.195-6.173-9.239-6.173h-34.335c5.1-61.582,56.85-110.137,119.725-110.137
			c27.279,0,53.013,8.955,74.418,25.896c3.98,3.151,9.688,2.819,13.277-0.77l51.936-51.937c1.965-1.966,3.024-4.661,2.922-7.438
			C398.56,98.838,397.307,96.228,395.203,94.412z"/>
	</g>
</g>
<g>
	<g>
		<path d="M184.702,65.41c-2.178-5.075-8.058-7.426-13.133-5.246l-0.848,0.368c-5.06,2.213-7.368,8.109-5.155,13.169
			c1.643,3.756,5.314,5.996,9.167,5.996c1.338,0,2.697-0.271,4.003-0.841l0.72-0.313C184.531,76.365,186.88,70.485,184.702,65.41z"
			/>
	</g>
</g>
<g>
	<g>
		<path d="M378.228,373.721c-3.906-3.904-10.238-3.904-14.143,0l-0.289,0.288c-3.915,3.896-3.93,10.228-0.034,14.142
			c1.954,1.964,4.521,2.946,7.088,2.946c2.551,0,5.103-0.971,7.055-2.912l0.323-0.321
			C382.133,383.958,382.133,377.626,378.228,373.721z"/>
	</g>
</g>
<g>
	<g>
		<path d="M353.065,396.804c-3.005-4.635-9.197-5.954-13.831-2.952c-24.255,15.721-52.529,24.031-81.766,24.031
			c-5.523,0-10,4.478-10,10c0,5.522,4.477,10,10,10c33.106,0,65.142-9.422,92.644-27.248
			C354.747,407.631,356.07,401.439,353.065,396.804z"/>
	</g>
</g>
<g>
</g>
<g>
</g>
<g>
</g>
<g>
</g>
<g>
</g>
<g>
</g>
<g>
</g>
<g>
</g>
<g>
</g>
<g>
</g>
<g>
</g>
<g>
</g>
<g>
</g>
<g>
</g>
<g>
</g>
</svg>
